<svg xmlns="http://www.w3.org/2000/svg" viewBox="0 0 520 260" role="img" aria-label="COLLAB: Plan together in real time">
  <defs>
    <clipPath id="r"><rect width="520" height="260" rx="22"/></clipPath>
  </defs>
  <g clip-path="url(#r)">
    <rect width="520" height="260" fill="#D6F0E3"/>
    <circle cx="520" cy="0" r="220" fill="#FFFFFF" opacity="0.35"/>
    <g transform="translate(390 22) scale(6)" fill="none" stroke="#1F7A4E" stroke-width="0.7" stroke-linecap="round" stroke-linejoin="round" opacity="0.10">
      <path d="M17 21v-2a4 4 0 0 0-4-4H5a4 4 0 0 0-4 4v2"/><circle cx="9" cy="7" r="4"/><path d="M23 21v-2a4 4 0 0 0-3-3.87M16 3.13a4 4 0 0 1 0 7.75"/>
    </g>
    <rect x="436" y="28" width="56" height="56" rx="14" fill="#FFFFFF" opacity="0.7"/>
    <g transform="translate(450 42) scale(1.15)" fill="none" stroke="#1F7A4E" stroke-width="2" stroke-linecap="round" stroke-linejoin="round">
      <path d="M17 21v-2a4 4 0 0 0-4-4H5a4 4 0 0 0-4 4v2"/><circle cx="9" cy="7" r="4"/><path d="M23 21v-2a4 4 0 0 0-3-3.87M16 3.13a4 4 0 0 1 0 7.75"/>
    </g>
    <text x="36" y="62" font-family="-apple-system, BlinkMacSystemFont, 'SF Pro Text', system-ui, Segoe UI, Roboto, sans-serif" font-size="18" font-weight="800" letter-spacing="2.8" fill="#1F7A4E">COLLAB</text>
    <text x="36" y="132" font-family="-apple-system, BlinkMacSystemFont, 'SF Pro Display', system-ui, Segoe UI, Roboto, sans-serif" font-size="48" font-weight="800" letter-spacing="-1.2" fill="#1A1A1F">Plan together</text>
    <text x="36" y="184" font-family="-apple-system, BlinkMacSystemFont, 'SF Pro Display', system-ui, Segoe UI, Roboto, sans-serif" font-size="48" font-weight="800" letter-spacing="-1.2" fill="#1F7A4E">in real time</text>
    <text x="36" y="224" font-family="-apple-system, BlinkMacSystemFont, 'SF Pro Text', system-ui, Segoe UI, Roboto, sans-serif" font-size="20" font-weight="500" fill="#325646">WebSocket sync, chat, polls, notes</text>
  </g>
</svg>