<svg xmlns="http://www.w3.org/2000/svg" viewBox="0 0 520 260" role="img" aria-label="MAPS: See it all on the map">
  <defs>
    <clipPath id="r"><rect width="520" height="260" rx="22"/></clipPath>
  </defs>
  <g clip-path="url(#r)">
    <rect width="520" height="260" fill="#DDEDFB"/>
    <circle cx="520" cy="0" r="220" fill="#FFFFFF" opacity="0.35"/>
    <g transform="translate(390 22) scale(6)" fill="none" stroke="#1E5AA8" stroke-width="0.7" stroke-linecap="round" stroke-linejoin="round" opacity="0.10">
      <path d="M1 6l7-3 8 3 7-3v15l-7 3-8-3-7 3zM8 3v15M16 6v15"/>
    </g>
    <rect x="436" y="28" width="56" height="56" rx="14" fill="#FFFFFF" opacity="0.7"/>
    <g transform="translate(450 42) scale(1.15)" fill="none" stroke="#1E5AA8" stroke-width="2" stroke-linecap="round" stroke-linejoin="round">
      <path d="M1 6l7-3 8 3 7-3v15l-7 3-8-3-7 3zM8 3v15M16 6v15"/>
    </g>
    <text x="36" y="62" font-family="-apple-system, BlinkMacSystemFont, 'SF Pro Text', system-ui, Segoe UI, Roboto, sans-serif" font-size="18" font-weight="800" letter-spacing="2.8" fill="#1E5AA8">MAPS</text>
    <text x="36" y="132" font-family="-apple-system, BlinkMacSystemFont, 'SF Pro Display', system-ui, Segoe UI, Roboto, sans-serif" font-size="48" font-weight="800" letter-spacing="-1.2" fill="#1A1A1F">See it all</text>
    <text x="36" y="184" font-family="-apple-system, BlinkMacSystemFont, 'SF Pro Display', system-ui, Segoe UI, Roboto, sans-serif" font-size="48" font-weight="800" letter-spacing="-1.2" fill="#1E5AA8">on the map</text>
    <text x="36" y="224" font-family="-apple-system, BlinkMacSystemFont, 'SF Pro Text', system-ui, Segoe UI, Roboto, sans-serif" font-size="20" font-weight="500" fill="#3B4D66">Leaflet + Mapbox GL, 3D buildings</text>
  </g>
</svg>